<mxfile host="app.diagrams.net" modified="2023-11-15T10:27:07.388Z" agent="Mozilla/5.0 (Macintosh; Intel Mac OS X 10_15_7) AppleWebKit/537.36 (KHTML, like Gecko) Chrome/119.0.0.0 Safari/537.36" etag="hhXeq8hgla_mGMPblq9n" version="22.1.1" type="google">
  <diagram name="Page-1" id="tpHqxWk0kEoIllRZtACK">
    <mxGraphModel grid="1" page="1" gridSize="10" guides="1" tooltips="1" connect="1" arrows="1" fold="1" pageScale="1" pageWidth="1169" pageHeight="827" math="0" shadow="0">
      <root>
        <mxCell id="0" />
        <mxCell id="1" parent="0" />
        <mxCell id="ehTbi9YT_apm5eFSuV4g-1" value="E el" style="rounded=0;whiteSpace=wrap;html=1;" vertex="1" parent="1">
          <mxGeometry x="80" y="130" width="120" height="60" as="geometry" />
        </mxCell>
        <mxCell id="ehTbi9YT_apm5eFSuV4g-2" value="E el" style="rounded=0;whiteSpace=wrap;html=1;" vertex="1" parent="1">
          <mxGeometry x="220" y="130" width="120" height="60" as="geometry" />
        </mxCell>
        <mxCell id="ehTbi9YT_apm5eFSuV4g-3" value="E el" style="rounded=0;whiteSpace=wrap;html=1;" vertex="1" parent="1">
          <mxGeometry x="360" y="130" width="120" height="60" as="geometry" />
        </mxCell>
        <mxCell id="ehTbi9YT_apm5eFSuV4g-4" value="E el" style="rounded=0;whiteSpace=wrap;html=1;" vertex="1" parent="1">
          <mxGeometry x="560" y="130" width="120" height="60" as="geometry" />
        </mxCell>
        <mxCell id="ehTbi9YT_apm5eFSuV4g-5" value="E el" style="rounded=0;whiteSpace=wrap;html=1;" vertex="1" parent="1">
          <mxGeometry x="700" y="130" width="120" height="60" as="geometry" />
        </mxCell>
        <mxCell id="ehTbi9YT_apm5eFSuV4g-6" value="E&amp;nbsp; el" style="rounded=0;whiteSpace=wrap;html=1;" vertex="1" parent="1">
          <mxGeometry x="840" y="130" width="120" height="60" as="geometry" />
        </mxCell>
        <mxCell id="ehTbi9YT_apm5eFSuV4g-7" value="0" style="text;html=1;strokeColor=none;fillColor=none;align=center;verticalAlign=middle;whiteSpace=wrap;rounded=0;" vertex="1" parent="1">
          <mxGeometry x="150" y="130" width="60" height="30" as="geometry" />
        </mxCell>
        <mxCell id="ehTbi9YT_apm5eFSuV4g-8" value="1" style="text;html=1;strokeColor=none;fillColor=none;align=center;verticalAlign=middle;whiteSpace=wrap;rounded=0;" vertex="1" parent="1">
          <mxGeometry x="300" y="130" width="60" height="30" as="geometry" />
        </mxCell>
        <mxCell id="ehTbi9YT_apm5eFSuV4g-9" value="2" style="text;html=1;strokeColor=none;fillColor=none;align=center;verticalAlign=middle;whiteSpace=wrap;rounded=0;" vertex="1" parent="1">
          <mxGeometry x="430" y="130" width="60" height="30" as="geometry" />
        </mxCell>
        <mxCell id="ehTbi9YT_apm5eFSuV4g-10" value="3" style="text;html=1;strokeColor=none;fillColor=none;align=center;verticalAlign=middle;whiteSpace=wrap;rounded=0;" vertex="1" parent="1">
          <mxGeometry x="636" y="130" width="60" height="30" as="geometry" />
        </mxCell>
        <mxCell id="ehTbi9YT_apm5eFSuV4g-11" value="4" style="text;html=1;strokeColor=none;fillColor=none;align=center;verticalAlign=middle;whiteSpace=wrap;rounded=0;" vertex="1" parent="1">
          <mxGeometry x="766" y="130" width="60" height="30" as="geometry" />
        </mxCell>
        <mxCell id="ehTbi9YT_apm5eFSuV4g-12" value="5" style="text;html=1;strokeColor=none;fillColor=none;align=center;verticalAlign=middle;whiteSpace=wrap;rounded=0;" vertex="1" parent="1">
          <mxGeometry x="906" y="130" width="60" height="30" as="geometry" />
        </mxCell>
        <mxCell id="ehTbi9YT_apm5eFSuV4g-13" value="ArrzayList" style="text;html=1;strokeColor=none;fillColor=none;align=center;verticalAlign=middle;whiteSpace=wrap;rounded=0;" vertex="1" parent="1">
          <mxGeometry x="100" y="90" width="60" height="30" as="geometry" />
        </mxCell>
        <mxCell id="ehTbi9YT_apm5eFSuV4g-14" value="E el" style="rounded=0;whiteSpace=wrap;html=1;" vertex="1" parent="1">
          <mxGeometry x="470" y="240" width="120" height="60" as="geometry" />
        </mxCell>
        <mxCell id="ehTbi9YT_apm5eFSuV4g-15" value="" style="endArrow=classic;html=1;rounded=0;" edge="1" parent="1">
          <mxGeometry width="50" height="50" relative="1" as="geometry">
            <mxPoint x="209" y="210" as="sourcePoint" />
            <mxPoint x="969" y="210" as="targetPoint" />
          </mxGeometry>
        </mxCell>
        <mxCell id="ehTbi9YT_apm5eFSuV4g-16" value="E el" style="rounded=0;whiteSpace=wrap;html=1;" vertex="1" parent="1">
          <mxGeometry x="80" y="224" width="120" height="60" as="geometry" />
        </mxCell>
        <mxCell id="ehTbi9YT_apm5eFSuV4g-17" value="" style="endArrow=classic;html=1;rounded=0;" edge="1" parent="1">
          <mxGeometry width="50" height="50" relative="1" as="geometry">
            <mxPoint x="526" y="230" as="sourcePoint" />
            <mxPoint x="966" y="230" as="targetPoint" />
          </mxGeometry>
        </mxCell>
        <mxCell id="ehTbi9YT_apm5eFSuV4g-18" value="" style="shape=link;html=1;rounded=0;" edge="1" parent="1">
          <mxGeometry width="100" relative="1" as="geometry">
            <mxPoint x="80" y="320" as="sourcePoint" />
            <mxPoint x="1040" y="320" as="targetPoint" />
          </mxGeometry>
        </mxCell>
        <mxCell id="ehTbi9YT_apm5eFSuV4g-19" value="E el" style="rounded=1;whiteSpace=wrap;html=1;" vertex="1" parent="1">
          <mxGeometry x="437" y="400" width="120" height="60" as="geometry" />
        </mxCell>
        <mxCell id="ehTbi9YT_apm5eFSuV4g-20" value="Node (узел)" style="text;html=1;strokeColor=none;fillColor=none;align=center;verticalAlign=middle;whiteSpace=wrap;rounded=0;" vertex="1" parent="1">
          <mxGeometry x="447" y="370" width="100" height="30" as="geometry" />
        </mxCell>
        <mxCell id="ehTbi9YT_apm5eFSuV4g-21" value="E el" style="rounded=1;whiteSpace=wrap;html=1;" vertex="1" parent="1">
          <mxGeometry x="774" y="400" width="120" height="60" as="geometry" />
        </mxCell>
        <mxCell id="ehTbi9YT_apm5eFSuV4g-22" value="E el" style="rounded=1;whiteSpace=wrap;html=1;" vertex="1" parent="1">
          <mxGeometry x="90" y="400" width="120" height="60" as="geometry" />
        </mxCell>
        <mxCell id="ehTbi9YT_apm5eFSuV4g-23" value="Prev" style="text;html=1;strokeColor=none;fillColor=none;align=center;verticalAlign=middle;whiteSpace=wrap;rounded=0;" vertex="1" parent="1">
          <mxGeometry x="427" y="430" width="60" height="30" as="geometry" />
        </mxCell>
        <mxCell id="ehTbi9YT_apm5eFSuV4g-24" value="Next" style="text;html=1;strokeColor=none;fillColor=none;align=center;verticalAlign=middle;whiteSpace=wrap;rounded=0;" vertex="1" parent="1">
          <mxGeometry x="507" y="430" width="60" height="30" as="geometry" />
        </mxCell>
        <mxCell id="ehTbi9YT_apm5eFSuV4g-25" value="E el" style="rounded=1;whiteSpace=wrap;html=1;" vertex="1" parent="1">
          <mxGeometry x="600" y="400" width="120" height="60" as="geometry" />
        </mxCell>
        <mxCell id="ehTbi9YT_apm5eFSuV4g-26" value="Next" style="text;html=1;strokeColor=none;fillColor=none;align=center;verticalAlign=middle;whiteSpace=wrap;rounded=0;" vertex="1" parent="1">
          <mxGeometry x="671" y="430" width="60" height="30" as="geometry" />
        </mxCell>
        <mxCell id="ehTbi9YT_apm5eFSuV4g-27" value="Prev" style="text;html=1;strokeColor=none;fillColor=none;align=center;verticalAlign=middle;whiteSpace=wrap;rounded=0;" vertex="1" parent="1">
          <mxGeometry x="596" y="430" width="60" height="30" as="geometry" />
        </mxCell>
        <mxCell id="ehTbi9YT_apm5eFSuV4g-28" value="E el" style="rounded=1;whiteSpace=wrap;html=1;" vertex="1" parent="1">
          <mxGeometry x="268" y="400" width="120" height="60" as="geometry" />
        </mxCell>
        <mxCell id="ehTbi9YT_apm5eFSuV4g-29" value="Next" style="text;html=1;strokeColor=none;fillColor=none;align=center;verticalAlign=middle;whiteSpace=wrap;rounded=0;" vertex="1" parent="1">
          <mxGeometry x="338" y="430" width="60" height="30" as="geometry" />
        </mxCell>
        <mxCell id="ehTbi9YT_apm5eFSuV4g-30" value="Prev" style="text;html=1;strokeColor=none;fillColor=none;align=center;verticalAlign=middle;whiteSpace=wrap;rounded=0;" vertex="1" parent="1">
          <mxGeometry x="258" y="430" width="60" height="30" as="geometry" />
        </mxCell>
        <mxCell id="ehTbi9YT_apm5eFSuV4g-31" value="Next" style="text;html=1;strokeColor=none;fillColor=none;align=center;verticalAlign=middle;whiteSpace=wrap;rounded=0;" vertex="1" parent="1">
          <mxGeometry x="160" y="430" width="60" height="30" as="geometry" />
        </mxCell>
        <mxCell id="ehTbi9YT_apm5eFSuV4g-32" value="null" style="text;html=1;strokeColor=none;fillColor=none;align=center;verticalAlign=middle;whiteSpace=wrap;rounded=0;" vertex="1" parent="1">
          <mxGeometry x="80" y="430" width="60" height="30" as="geometry" />
        </mxCell>
        <mxCell id="ehTbi9YT_apm5eFSuV4g-33" value="First Node (узел)" style="text;html=1;strokeColor=none;fillColor=none;align=center;verticalAlign=middle;whiteSpace=wrap;rounded=0;" vertex="1" parent="1">
          <mxGeometry x="100" y="370" width="100" height="30" as="geometry" />
        </mxCell>
        <mxCell id="ehTbi9YT_apm5eFSuV4g-34" value="" style="endArrow=classic;html=1;rounded=0;exitX=1;exitY=0.5;exitDx=0;exitDy=0;" edge="1" parent="1" source="ehTbi9YT_apm5eFSuV4g-31" target="ehTbi9YT_apm5eFSuV4g-30">
          <mxGeometry width="50" height="50" relative="1" as="geometry">
            <mxPoint x="560" y="410" as="sourcePoint" />
            <mxPoint x="610" y="360" as="targetPoint" />
          </mxGeometry>
        </mxCell>
        <mxCell id="ehTbi9YT_apm5eFSuV4g-35" value="" style="endArrow=classic;html=1;rounded=0;exitX=1;exitY=0.5;exitDx=0;exitDy=0;" edge="1" parent="1">
          <mxGeometry width="50" height="50" relative="1" as="geometry">
            <mxPoint x="392" y="444.5" as="sourcePoint" />
            <mxPoint x="430" y="444.5" as="targetPoint" />
          </mxGeometry>
        </mxCell>
        <mxCell id="ehTbi9YT_apm5eFSuV4g-37" value="Prev" style="text;html=1;strokeColor=none;fillColor=none;align=center;verticalAlign=middle;whiteSpace=wrap;rounded=0;" vertex="1" parent="1">
          <mxGeometry x="764" y="430" width="60" height="30" as="geometry" />
        </mxCell>
        <mxCell id="ehTbi9YT_apm5eFSuV4g-38" value="null" style="text;html=1;strokeColor=none;fillColor=none;align=center;verticalAlign=middle;whiteSpace=wrap;rounded=0;" vertex="1" parent="1">
          <mxGeometry x="840" y="430" width="60" height="30" as="geometry" />
        </mxCell>
        <mxCell id="ehTbi9YT_apm5eFSuV4g-39" value="" style="endArrow=classic;html=1;rounded=0;exitX=1;exitY=0.5;exitDx=0;exitDy=0;" edge="1" parent="1">
          <mxGeometry width="50" height="50" relative="1" as="geometry">
            <mxPoint x="732" y="444.5" as="sourcePoint" />
            <mxPoint x="770" y="444.5" as="targetPoint" />
          </mxGeometry>
        </mxCell>
        <mxCell id="ehTbi9YT_apm5eFSuV4g-40" value="0" style="text;html=1;strokeColor=none;fillColor=none;align=center;verticalAlign=middle;whiteSpace=wrap;rounded=0;" vertex="1" parent="1">
          <mxGeometry x="158" y="399" width="60" height="30" as="geometry" />
        </mxCell>
        <mxCell id="ehTbi9YT_apm5eFSuV4g-41" value="1" style="text;html=1;strokeColor=none;fillColor=none;align=center;verticalAlign=middle;whiteSpace=wrap;rounded=0;" vertex="1" parent="1">
          <mxGeometry x="328" y="399" width="60" height="30" as="geometry" />
        </mxCell>
        <mxCell id="ehTbi9YT_apm5eFSuV4g-42" value="2" style="text;html=1;strokeColor=none;fillColor=none;align=center;verticalAlign=middle;whiteSpace=wrap;rounded=0;" vertex="1" parent="1">
          <mxGeometry x="507" y="400" width="60" height="30" as="geometry" />
        </mxCell>
        <mxCell id="ehTbi9YT_apm5eFSuV4g-43" value="3" style="text;html=1;strokeColor=none;fillColor=none;align=center;verticalAlign=middle;whiteSpace=wrap;rounded=0;" vertex="1" parent="1">
          <mxGeometry x="671" y="399" width="60" height="30" as="geometry" />
        </mxCell>
        <mxCell id="ehTbi9YT_apm5eFSuV4g-44" value="4" style="text;html=1;strokeColor=none;fillColor=none;align=center;verticalAlign=middle;whiteSpace=wrap;rounded=0;" vertex="1" parent="1">
          <mxGeometry x="834" y="399" width="60" height="30" as="geometry" />
        </mxCell>
        <mxCell id="ehTbi9YT_apm5eFSuV4g-45" value="Last Node (узел)" style="text;html=1;strokeColor=none;fillColor=none;align=center;verticalAlign=middle;whiteSpace=wrap;rounded=0;" vertex="1" parent="1">
          <mxGeometry x="794" y="369" width="100" height="30" as="geometry" />
        </mxCell>
        <mxCell id="ehTbi9YT_apm5eFSuV4g-46" value="E el" style="rounded=0;whiteSpace=wrap;html=1;" vertex="1" parent="1">
          <mxGeometry x="864" y="480" width="120" height="60" as="geometry" />
        </mxCell>
        <mxCell id="ehTbi9YT_apm5eFSuV4g-47" value="E el" style="rounded=0;whiteSpace=wrap;html=1;" vertex="1" parent="1">
          <mxGeometry x="532" y="521" width="120" height="60" as="geometry" />
        </mxCell>
        <mxCell id="ehTbi9YT_apm5eFSuV4g-48" value="Next" style="text;html=1;strokeColor=none;fillColor=none;align=center;verticalAlign=middle;whiteSpace=wrap;rounded=0;" vertex="1" parent="1">
          <mxGeometry x="602.5" y="551" width="60" height="30" as="geometry" />
        </mxCell>
        <mxCell id="ehTbi9YT_apm5eFSuV4g-49" value="Prev" style="text;html=1;strokeColor=none;fillColor=none;align=center;verticalAlign=middle;whiteSpace=wrap;rounded=0;" vertex="1" parent="1">
          <mxGeometry x="524.5" y="551" width="60" height="30" as="geometry" />
        </mxCell>
        <mxCell id="ehTbi9YT_apm5eFSuV4g-36" value="" style="endArrow=classic;html=1;rounded=0;exitX=0.5;exitY=1;exitDx=0;exitDy=0;entryX=0.25;entryY=0;entryDx=0;entryDy=0;" edge="1" parent="1" source="ehTbi9YT_apm5eFSuV4g-24" target="ehTbi9YT_apm5eFSuV4g-49">
          <mxGeometry width="50" height="50" relative="1" as="geometry">
            <mxPoint x="560" y="447" as="sourcePoint" />
            <mxPoint x="598" y="447" as="targetPoint" />
          </mxGeometry>
        </mxCell>
        <mxCell id="ehTbi9YT_apm5eFSuV4g-50" value="" style="endArrow=classic;html=1;rounded=0;exitX=0.5;exitY=0;exitDx=0;exitDy=0;entryX=0.617;entryY=0.967;entryDx=0;entryDy=0;entryPerimeter=0;" edge="1" parent="1" source="ehTbi9YT_apm5eFSuV4g-48" target="ehTbi9YT_apm5eFSuV4g-27">
          <mxGeometry width="50" height="50" relative="1" as="geometry">
            <mxPoint x="570" y="457" as="sourcePoint" />
            <mxPoint x="548" y="560" as="targetPoint" />
          </mxGeometry>
        </mxCell>
        <mxCell id="ehTbi9YT_apm5eFSuV4g-51" value="- переопределить ссылки&lt;br&gt;- переопределить индексы&lt;br&gt;- увеличить size" style="text;html=1;strokeColor=none;fillColor=none;align=center;verticalAlign=middle;whiteSpace=wrap;rounded=0;" vertex="1" parent="1">
          <mxGeometry x="524.5" y="600" width="160" height="30" as="geometry" />
        </mxCell>
        <mxCell id="ehTbi9YT_apm5eFSuV4g-52" value="E el" style="rounded=0;whiteSpace=wrap;html=1;" vertex="1" parent="1">
          <mxGeometry x="40" y="480" width="120" height="60" as="geometry" />
        </mxCell>
        <mxCell id="ehTbi9YT_apm5eFSuV4g-53" value="" style="ellipse;whiteSpace=wrap;html=1;aspect=fixed;" vertex="1" parent="1">
          <mxGeometry x="140" y="700" width="60" height="60" as="geometry" />
        </mxCell>
        <mxCell id="ehTbi9YT_apm5eFSuV4g-54" value="" style="ellipse;whiteSpace=wrap;html=1;aspect=fixed;" vertex="1" parent="1">
          <mxGeometry x="258" y="510" width="60" height="60" as="geometry" />
        </mxCell>
        <mxCell id="ehTbi9YT_apm5eFSuV4g-55" value="" style="ellipse;whiteSpace=wrap;html=1;aspect=fixed;" vertex="1" parent="1">
          <mxGeometry x="258" y="730" width="60" height="60" as="geometry" />
        </mxCell>
        <mxCell id="ehTbi9YT_apm5eFSuV4g-56" value="" style="ellipse;whiteSpace=wrap;html=1;aspect=fixed;" vertex="1" parent="1">
          <mxGeometry x="290" y="650" width="60" height="60" as="geometry" />
        </mxCell>
        <mxCell id="ehTbi9YT_apm5eFSuV4g-57" value="" style="ellipse;whiteSpace=wrap;html=1;aspect=fixed;" vertex="1" parent="1">
          <mxGeometry x="398" y="750" width="60" height="60" as="geometry" />
        </mxCell>
        <mxCell id="ehTbi9YT_apm5eFSuV4g-58" value="" style="ellipse;whiteSpace=wrap;html=1;aspect=fixed;" vertex="1" parent="1">
          <mxGeometry x="458" y="630" width="60" height="60" as="geometry" />
        </mxCell>
        <mxCell id="ehTbi9YT_apm5eFSuV4g-59" value="" style="ellipse;whiteSpace=wrap;html=1;aspect=fixed;" vertex="1" parent="1">
          <mxGeometry x="547" y="740" width="60" height="60" as="geometry" />
        </mxCell>
        <mxCell id="ehTbi9YT_apm5eFSuV4g-60" value="" style="ellipse;whiteSpace=wrap;html=1;aspect=fixed;" vertex="1" parent="1">
          <mxGeometry x="640" y="680" width="60" height="60" as="geometry" />
        </mxCell>
        <mxCell id="ehTbi9YT_apm5eFSuV4g-62" value="" style="endArrow=classic;html=1;rounded=0;" edge="1" parent="1" target="ehTbi9YT_apm5eFSuV4g-54">
          <mxGeometry width="50" height="50" relative="1" as="geometry">
            <mxPoint x="180" y="700" as="sourcePoint" />
            <mxPoint x="230" y="650" as="targetPoint" />
          </mxGeometry>
        </mxCell>
        <mxCell id="ehTbi9YT_apm5eFSuV4g-63" value="" style="endArrow=classic;html=1;rounded=0;entryX=0;entryY=0;entryDx=0;entryDy=0;exitX=0.5;exitY=1;exitDx=0;exitDy=0;" edge="1" parent="1" source="ehTbi9YT_apm5eFSuV4g-54" target="ehTbi9YT_apm5eFSuV4g-55">
          <mxGeometry width="50" height="50" relative="1" as="geometry">
            <mxPoint x="190" y="710" as="sourcePoint" />
            <mxPoint x="281" y="575" as="targetPoint" />
          </mxGeometry>
        </mxCell>
        <mxCell id="ehTbi9YT_apm5eFSuV4g-65" value="" style="endArrow=classic;html=1;rounded=0;entryX=-0.05;entryY=0.35;entryDx=0;entryDy=0;exitX=0.983;exitY=0.283;exitDx=0;exitDy=0;entryPerimeter=0;exitPerimeter=0;" edge="1" parent="1" source="ehTbi9YT_apm5eFSuV4g-56" target="ehTbi9YT_apm5eFSuV4g-58">
          <mxGeometry width="50" height="50" relative="1" as="geometry">
            <mxPoint x="298" y="580" as="sourcePoint" />
            <mxPoint x="277" y="749" as="targetPoint" />
          </mxGeometry>
        </mxCell>
        <mxCell id="ehTbi9YT_apm5eFSuV4g-66" value="" style="endArrow=classic;html=1;rounded=0;entryX=0.5;entryY=0;entryDx=0;entryDy=0;exitX=0;exitY=1;exitDx=0;exitDy=0;" edge="1" parent="1" source="ehTbi9YT_apm5eFSuV4g-58" target="ehTbi9YT_apm5eFSuV4g-57">
          <mxGeometry width="50" height="50" relative="1" as="geometry">
            <mxPoint x="359" y="677" as="sourcePoint" />
            <mxPoint x="465" y="661" as="targetPoint" />
            <Array as="points">
              <mxPoint x="450" y="710" />
            </Array>
          </mxGeometry>
        </mxCell>
        <mxCell id="ehTbi9YT_apm5eFSuV4g-67" value="" style="endArrow=classic;html=1;rounded=0;entryX=0;entryY=0.5;entryDx=0;entryDy=0;exitX=1;exitY=0.5;exitDx=0;exitDy=0;" edge="1" parent="1" source="ehTbi9YT_apm5eFSuV4g-57" target="ehTbi9YT_apm5eFSuV4g-59">
          <mxGeometry width="50" height="50" relative="1" as="geometry">
            <mxPoint x="477" y="691" as="sourcePoint" />
            <mxPoint x="438" y="760" as="targetPoint" />
            <Array as="points" />
          </mxGeometry>
        </mxCell>
        <mxCell id="ehTbi9YT_apm5eFSuV4g-68" value="" style="endArrow=classic;html=1;rounded=0;entryX=0;entryY=1;entryDx=0;entryDy=0;exitX=1.033;exitY=0.367;exitDx=0;exitDy=0;exitPerimeter=0;" edge="1" parent="1" source="ehTbi9YT_apm5eFSuV4g-59" target="ehTbi9YT_apm5eFSuV4g-60">
          <mxGeometry width="50" height="50" relative="1" as="geometry">
            <mxPoint x="607" y="774.5" as="sourcePoint" />
            <mxPoint x="705" y="785.5" as="targetPoint" />
            <Array as="points" />
          </mxGeometry>
        </mxCell>
        <mxCell id="ehTbi9YT_apm5eFSuV4g-69" value="" style="endArrow=classic;html=1;rounded=0;entryX=0.5;entryY=1;entryDx=0;entryDy=0;exitX=1;exitY=0;exitDx=0;exitDy=0;" edge="1" parent="1" source="ehTbi9YT_apm5eFSuV4g-55" target="ehTbi9YT_apm5eFSuV4g-56">
          <mxGeometry width="50" height="50" relative="1" as="geometry">
            <mxPoint x="359" y="677" as="sourcePoint" />
            <mxPoint x="465" y="661" as="targetPoint" />
          </mxGeometry>
        </mxCell>
      </root>
    </mxGraphModel>
  </diagram>
</mxfile>
